<svg width="250" height="44" viewBox="0 0 250 44" fill="none" xmlns="http://www.w3.org/2000/svg">
<path d="M11.432 43H0.68L19.432 0.119999H33.128L52.008 43H41L36.968 33.528H15.528L11.432 43ZM23.272 15.544L19.24 24.888H33.256L29.224 15.544L26.6 8.888H25.896L23.272 15.544ZM63.1435 43H54.2475V0.119999H63.8475V19.448H64.3595C65.4475 14.072 69.3515 10.296 76.9675 10.296C86.5675 10.296 91.9435 16.76 91.9435 27C91.9435 37.112 86.5035 43.64 76.5195 43.64C69.0955 43.64 64.8715 40.44 63.7195 34.104H63.1435V43ZM63.8475 27.192C63.8475 32.76 67.1115 34.872 73.1915 34.872C79.3995 34.872 82.2155 32.824 82.2155 27C82.2155 21.112 79.3995 19.064 73.2555 19.064C67.0475 19.064 63.8475 21.112 63.8475 26.68V27.192ZM105.535 43H95.935V0.119999H105.535V43ZM127.584 43.64C116.896 43.64 109.6 38.392 109.6 27C109.6 16.76 116.832 10.296 127.392 10.296C137.888 10.296 144.864 15.8 144.864 25.848C144.864 27 144.736 27.832 144.608 28.92H118.496C118.752 33.848 121.056 35.96 127.264 35.96C132.96 35.96 134.944 34.488 134.944 31.736V31.096H144.544V31.8C144.544 38.776 137.76 43.64 127.584 43.64ZM127.2 17.784C121.504 17.784 119.072 19.704 118.624 23.864H135.648C135.392 19.64 132.832 17.784 127.2 17.784ZM171.527 43H163.591C156.103 43 151.559 39.48 151.559 31.416V18.872H146.503V10.936H151.559V4.728H161.159V10.936H171.527V18.872H161.159V30.328C161.159 33.528 162.375 34.36 165.767 34.36H171.527V43ZM192.211 43.64C181.267 43.64 173.907 37.112 173.907 27C173.907 16.76 181.267 10.296 192.211 10.296C203.155 10.296 210.515 16.76 210.515 27C210.515 37.112 203.155 43.64 192.211 43.64ZM192.211 35.128C198.675 35.128 200.979 32.632 200.979 27C200.979 21.368 198.675 18.744 192.211 18.744C185.683 18.744 183.443 21.368 183.443 27C183.443 32.632 185.683 35.128 192.211 35.128ZM224.035 43H214.435V10.936H223.331V20.792H223.907C224.739 15.416 228.579 10.296 236.963 10.296C245.731 10.296 249.891 15.928 249.891 23.032V43H240.291V26.232C240.291 21.112 238.179 18.936 232.291 18.936C226.211 18.936 224.035 21.368 224.035 26.808V43Z" fill="white"/>
</svg>
