<?xml version="1.0" encoding="UTF-8" standalone="no"?>
<!DOCTYPE svg PUBLIC "-//W3C//DTD SVG 1.1//EN" "http://www.w3.org/Graphics/SVG/1.1/DTD/svg11.dtd">
<svg width="100%" height="100%" viewBox="0 0 524 593" version="1.1" xmlns="http://www.w3.org/2000/svg" xmlns:xlink="http://www.w3.org/1999/xlink" xml:space="preserve" xmlns:serif="http://www.serif.com/" style="fill-rule:evenodd;clip-rule:evenodd;stroke-linejoin:round;stroke-miterlimit:2;">
    <g transform="matrix(1,0,0,1,-117.14,-104.377)">
        <g transform="matrix(1,0,0,1,-20.8754,104.377)">
            <path d="M158.306,506.833L160.249,512.317C160,511.69 159.289,509.77 158.306,506.833ZM235.19,382.526C238.602,353.052 250.188,336.55 272.021,319.633C303.261,296.721 342.283,309.682 342.283,309.682L342.283,232.797C351.77,232.544 361.261,233.131 370.644,234.551L370.644,333.493C370.644,333.493 331.633,320.533 300.394,343.456C278.572,360.361 266.963,376.875 263.563,406.35C263.456,422.355 266.335,443.276 279.591,461.365C276.314,459.612 272.973,457.614 269.569,455.371C240.367,434.912 235.048,404.217 235.19,382.526ZM531.77,90.638C510.28,66.068 502.153,41.262 499.215,23.835L526.249,23.835C526.249,23.835 520.859,69.528 560.142,114.462L560.687,115.066C550.1,108.117 540.39,99.915 531.77,90.638ZM661.999,160.296L661.999,257.249C661.999,257.249 627.502,255.839 601.972,249.063C566.326,239.585 543.415,225.05 543.415,225.05C543.415,225.05 527.588,214.684 526.308,213.961L526.308,414.169C526.308,425.316 523.382,453.156 514.462,476.375C502.817,506.75 484.845,526.687 481.54,530.763C481.54,530.763 459.683,557.714 421.122,575.863C386.365,592.235 355.848,591.82 346.726,592.235C346.726,592.235 293.973,594.414 246.504,562.227C236.239,555.133 226.657,547.098 217.882,538.226L218.119,538.404C265.6,570.591 318.341,568.411 318.341,568.411C327.475,567.996 357.992,568.411 392.738,552.039C431.263,533.89 453.156,506.939 453.156,506.939C456.425,502.864 474.479,482.926 486.077,452.54C494.974,429.332 497.924,401.481 497.924,390.333L497.924,190.15C499.203,190.884 515.019,201.25 515.019,201.25C515.019,201.25 537.942,215.797 573.588,225.263C599.129,232.039 633.615,233.449 633.615,233.449L633.615,157.477C645.414,160.237 655.472,160.983 661.999,160.296Z" style="fill:rgb(238,29,82);fill-rule:nonzero;"/>
        </g>
        <g transform="matrix(1,0,0,1,-20.8754,104.377)">
            <path d="M633.627,157.477L633.627,233.425C633.627,233.425 599.141,232.015 573.6,225.239C537.954,215.762 515.03,201.226 515.03,201.226C515.03,201.226 499.215,190.86 497.936,190.126L497.936,390.357C497.936,401.505 495.01,429.356 486.089,452.563C474.444,482.95 456.473,502.888 453.167,506.963C453.167,506.963 431.299,533.914 392.75,552.063C358.004,568.435 327.487,568.02 318.353,568.435C318.353,568.435 265.612,570.615 218.131,538.427L217.894,538.25C212.881,533.185 208.163,527.837 203.761,522.233C188.61,502.959 179.322,480.166 176.988,473.662C176.984,473.635 176.984,473.607 176.988,473.579C173.233,462.278 165.343,435.137 166.421,408.849C168.328,362.47 183.966,334.003 188.1,326.871C199.05,307.424 213.292,290.023 230.191,275.445C245.104,262.866 262.007,252.856 280.207,245.829C299.882,237.577 320.951,233.154 342.283,232.797L342.283,309.682C342.283,309.682 303.261,296.769 272.033,319.633C250.2,336.55 238.614,353.052 235.202,382.526C235.06,404.217 240.379,434.912 269.557,455.383C272.961,457.634 276.302,459.632 279.579,461.377C284.677,468.291 290.881,474.315 297.942,479.206C326.445,498.031 350.327,499.345 380.868,487.12C401.232,478.946 416.562,460.524 423.669,440.113C428.136,427.366 428.076,414.536 428.076,401.268L428.076,23.835L499.156,23.835C502.094,41.262 510.221,66.068 531.71,90.638C540.331,99.915 550.04,108.117 560.628,115.066C563.755,118.442 579.748,135.134 600.278,145.381C610.894,150.678 622.084,154.737 633.627,157.477Z" style="fill-rule:nonzero;"/>
        </g>
        <g transform="matrix(1,0,0,1,-20.8754,104.377)">
            <path d="M148.698,450.052L148.698,450.111L150.452,455.098C150.25,454.518 149.599,452.753 148.698,450.052Z" style="fill:rgb(105,201,208);fill-rule:nonzero;"/>
        </g>
        <g transform="matrix(1,0,0,1,-20.8754,104.377)">
            <path d="M280.207,245.829C262.007,252.856 245.104,262.866 230.191,275.445C213.286,290.056 199.048,307.493 188.112,326.978C183.977,334.086 168.34,362.577 166.433,408.956C165.355,435.244 173.244,462.384 177,473.686C176.996,473.713 176.996,473.741 177,473.769C179.369,480.213 188.621,503.006 203.773,522.34C208.174,527.944 212.893,533.292 217.906,538.356C201.845,527.248 187.52,513.818 175.401,498.504C160.379,479.396 151.115,456.84 148.698,450.182C148.696,450.135 148.696,450.087 148.698,450.04L148.698,449.957C144.931,438.667 137.018,411.515 138.119,385.192C140.027,338.812 155.664,310.345 159.799,303.213C170.731,283.727 184.97,266.289 201.878,251.681C216.787,239.097 233.692,229.087 251.894,222.064C263.248,217.354 275.076,213.878 287.173,211.699C305.404,208.516 324.025,208.24 342.343,210.881L342.343,232.797C320.991,233.147 299.9,237.57 280.207,245.829Z" style="fill:rgb(105,201,208);fill-rule:nonzero;"/>
        </g>
        <g transform="matrix(1,0,0,1,-20.8754,104.377)">
            <path d="M499.215,23.835L428.136,23.835L428.136,401.279C428.136,414.548 428.136,427.342 423.729,440.124C416.55,460.524 401.279,478.946 380.927,487.12C350.375,499.393 326.492,498.031 298.001,479.206C290.928,474.337 284.708,468.332 279.591,461.436C303.865,474.385 325.592,474.16 352.507,463.356C372.848,455.181 388.142,436.76 395.297,416.348C399.775,403.601 399.716,390.772 399.716,377.515L399.716,0L497.865,0C497.865,0 496.763,9.382 499.215,23.835ZM633.627,136.473L633.627,157.477C622.104,154.732 610.934,150.674 600.338,145.381C579.807,135.134 563.815,118.442 560.687,115.066C564.316,117.449 568.082,119.616 571.965,121.558C596.926,134.02 621.507,137.74 633.627,136.473Z" style="fill:rgb(105,201,208);fill-rule:nonzero;"/>
        </g>
    </g>
</svg>
