<?xml version="1.0" encoding="UTF-8" standalone="no"?>
<!DOCTYPE svg PUBLIC "-//W3C//DTD SVG 1.1//EN" "http://www.w3.org/Graphics/SVG/1.1/DTD/svg11.dtd">
<svg width="100%" height="100%" viewBox="0 0 800 567" version="1.1" xmlns="http://www.w3.org/2000/svg" xmlns:xlink="http://www.w3.org/1999/xlink" xml:space="preserve" xmlns:serif="http://www.serif.com/" style="fill-rule:evenodd;clip-rule:evenodd;stroke-linejoin:round;stroke-miterlimit:2;">
    <g transform="matrix(1,0,0,1,0,-116.667)">
        <g transform="matrix(1,0,0,1,-3333.33,-6133.33)">
            <g id="Icons">
                <g id="Color-">
                    <path id="Youtube" d="M3650.73,6637.83L3650.71,6411.46L3866.86,6525.04L3650.73,6637.83ZM4125.33,6372.24C4125.33,6372.24 4117.51,6316.72 4093.53,6292.27C4063.11,6260.17 4029.01,6260.02 4013.38,6258.16C3901.43,6250 3733.51,6250 3733.51,6250L3733.16,6250C3733.16,6250 3565.23,6250 3453.28,6258.16C3437.63,6260.02 3403.56,6260.17 3373.11,6292.27C3349.13,6316.72 3341.33,6372.24 3341.33,6372.24C3341.33,6372.24 3333.33,6437.44 3333.33,6502.63L3333.33,6563.76C3333.33,6628.97 3341.33,6694.15 3341.33,6694.15C3341.33,6694.15 3349.13,6749.67 3373.11,6774.12C3403.56,6806.22 3443.53,6805.21 3461.33,6808.56C3525.33,6814.75 3733.33,6816.67 3733.33,6816.67C3733.33,6816.67 3901.43,6816.41 4013.38,6808.26C4029.01,6806.37 4063.11,6806.22 4093.53,6774.12C4117.51,6749.67 4125.33,6694.15 4125.33,6694.15C4125.33,6694.15 4133.33,6628.97 4133.33,6563.76L4133.33,6502.63C4133.33,6437.44 4125.33,6372.24 4125.33,6372.24Z" style="fill:rgb(206,19,18);"/>
                </g>
            </g>
        </g>
    </g>
</svg>
